Coordinates
version=1
nRows=14
nColumns=40
inDegrees=yes

Units are S.I. units (second, meters, Newtons, ...)
If the header above contains a line with 'inDegrees', this indicates whether rotational values are in degrees (yes) or radians (no).

endheader
time	pelvis_tilt	pelvis_list	pelvis_rotation	pelvis_tx	pelvis_ty	pelvis_tz	hip_flexion_r	hip_adduction_r	hip_rotation_r	knee_angle_r	knee_angle_r_beta	ankle_angle_r	subtalar_angle_r	mtp_angle_r	hip_flexion_l	hip_adduction_l	hip_rotation_l	knee_angle_l	knee_angle_l_beta	ankle_angle_l	subtalar_angle_l	mtp_angle_l	lumbar_extension	lumbar_bending	lumbar_rotation	arm_flex_r	arm_add_r	arm_rot_r	elbow_flex_r	pro_sup_r	wrist_flex_r	wrist_dev_r	arm_flex_l	arm_add_l	arm_rot_l	elbow_flex_l	pro_sup_l	wrist_flex_l	wrist_dev_l
      7.30000000	      4.07891374	     -4.08282726	   -169.43983498	      0.33100490	      0.70495177	     -0.60785679	     62.52078280	    -20.90513971	      3.48858302	     81.18457245	      1.41693809	     27.84554428	      0.00000000	      0.00000000	     63.03505786	     -3.43424719	      0.25106351	     79.44813230	      1.38663149	     22.42300462	      0.00000000	      0.00000000	    -63.24238008	      6.87300481	    -11.46296518	     55.50695502	     -1.88902765	     23.61232038	      8.98931910	     24.74507904	      0.00000000	      0.00000000	     65.57166068	    -14.98296831	     77.67151763	      6.24204351	     78.79130487	      0.00000000	      0.00000000
      7.30500000	      4.11977388	     -4.13368612	   -169.50095581	      0.33059546	      0.70539070	     -0.60762383	     62.50577296	    -20.93117325	      3.53096972	     81.09277920	      1.41533600	     27.80659466	      0.00000000	      0.00000000	     62.96904331	     -3.42795225	      0.16233882	     79.38838687	      1.38558874	     22.44005171	      0.00000000	      0.00000000	    -63.27435340	      6.81524037	    -11.19944614	     55.49299135	     -2.15267034	     21.88688356	      9.17195071	     26.40784666	      0.00000000	      0.00000000	     65.47703207	    -14.17136352	     74.74083855	      5.56840409	     77.73606227	      0.00000000	      0.00000000
      7.31000000	      4.15974648	     -4.09531323	   -169.51992892	      0.33028422	      0.70578631	     -0.60742464	     62.45626303	    -20.86460961	      3.52851366	     81.00406902	      1.41378771	     27.80752336	      0.00000000	      0.00000000	     62.94683242	     -3.45306269	      0.16241122	     79.31781341	      1.38435700	     22.46390170	      0.00000000	      0.00000000	    -63.25566548	      6.86350262	    -11.31603306	     55.57846927	     -1.71116114	     20.83340312	      9.26546713	     25.43972692	      0.00000000	      0.00000000	     65.68816250	    -14.72842297	     77.99353305	      6.04739075	     79.82672565	      0.00000000	      0.00000000
      7.31500000	      4.23711466	     -4.11312770	   -169.59377037	      0.32990818	      0.70615909	     -0.60720542	     62.48459622	    -20.84200526	      3.57936158	     80.91690702	      1.41226645	     27.77864776	      0.00000000	      0.00000000	     62.93560655	     -3.48100164	      0.08603385	     79.25575880	      1.38327394	     22.46873101	      0.00000000	      0.00000000	    -63.22804537	      6.82688017	    -11.15224697	     55.77182561	     -1.74297923	     19.61015219	      8.81265669	     26.70431878	      0.00000000	      0.00000000	     65.57281760	    -14.30018784	     75.53797766	      5.73156968	     79.02839175	      0.00000000	      0.00000000
      7.32000000	      4.23160844	     -4.05536141	   -169.57178397	      0.32961023	      0.70676652	     -0.60682071	     62.34381977	    -20.85163688	      3.47777262	     80.77987457	      1.40987478	     27.76443816	      0.00000000	      0.00000000	     62.85849103	     -3.46728284	      0.13142635	     79.17275192	      1.38182520	     22.47482044	      0.00000000	      0.00000000	    -63.27422063	      6.90920643	    -11.21022719	     55.71017478	     -1.50886170	     18.97549653	      9.26487146	     25.50048122	      0.00000000	      0.00000000	     65.71596121	    -14.61127621	     78.19086951	      6.02859827	     79.85635629	      0.00000000	      0.00000000
      7.32500000	      4.32323182	     -4.13447245	   -169.67186336	      0.32922617	      0.70707059	     -0.60676699	     62.41857921	    -20.77724522	      3.65601798	     80.71190570	      1.40868850	     27.75554772	      0.00000000	      0.00000000	     62.84743792	     -3.49908919	     -0.01367525	     79.11716438	      1.38085501	     22.48244084	      0.00000000	      0.00000000	    -63.21299642	      6.80217340	    -11.31514699	     55.92560226	     -1.21042786	     18.15708776	      8.97883179	     25.14806493	      0.00000000	      0.00000000	     65.62372752	    -14.67223127	     77.22150727	      5.99933728	     79.46192203	      0.00000000	      0.00000000
      7.33000000	      4.31784475	     -4.23925922	   -169.79560439	      0.32888457	      0.70775787	     -0.60667528	     62.33979589	    -20.73032142	      3.78766994	     80.57646096	      1.40632454	     27.76394476	      0.00000000	      0.00000000	     62.67927183	     -3.54011327	     -0.20424449	     78.99017756	      1.37863868	     22.49453757	      0.00000000	      0.00000000	    -63.29208950	      6.67866187	    -11.42819404	     56.01367659	     -1.03759332	     17.64490329	      8.85704438	     25.78642088	      0.00000000	      0.00000000	     65.66612145	    -14.84531541	     77.24887739	      6.18537517	     79.83754101	      0.00000000	      0.00000000
      7.33500000	      4.36300933	     -4.22624305	   -169.82458023	      0.32856475	      0.70825558	     -0.60644192	     62.32451436	    -20.70803999	      3.79140152	     80.48608638	      1.40474721	     27.68149184	      0.00000000	      0.00000000	     62.64213852	     -3.55182426	     -0.22695662	     78.91109119	      1.37725836	     22.48895331	      0.00000000	      0.00000000	    -63.28929510	      6.68888192	    -11.35058028	     56.03863194	     -1.04368437	     17.16034054	      8.95082566	     25.63205971	      0.00000000	      0.00000000	     65.67370159	    -14.71520106	     77.32088480	      6.07614622	     79.77896578	      0.00000000	      0.00000000
      7.34000000	      4.38165525	     -4.11966975	   -169.76246622	      0.32828883	      0.70885504	     -0.60589396	     62.19827644	    -20.77501854	      3.60068703	     80.35024010	      1.40237624	     27.60721824	      0.00000000	      0.00000000	     62.61499211	     -3.49404937	     -0.09201171	     78.83245418	      1.37588588	     22.50172434	      0.00000000	      0.00000000	    -63.29901672	      6.84989542	    -11.16596468	     55.96303639	     -1.25551676	     17.00746326	      9.32157745	     24.87531720	      0.00000000	      0.00000000	     65.71580444	    -14.55634229	     78.29682356	      6.03496760	     79.80506928	      0.00000000	      0.00000000
      7.34500000	      4.39828476	     -4.11849147	   -169.80881573	      0.32800399	      0.70953007	     -0.60566018	     62.10786183	    -20.74804995	      3.58729339	     80.20610895	      1.39986068	     27.56862496	      0.00000000	      0.00000000	     62.52223077	     -3.51708764	     -0.14424722	     78.72703764	      1.37404602	     22.48080711	      0.00000000	      0.00000000	    -63.34109153	      6.84261857	    -11.15596732	     56.04913930	     -1.16402438	     16.81867116	      9.32127835	     24.57761166	      0.00000000	      0.00000000	     65.74395082	    -14.56785267	     78.22742130	      6.05674029	     79.81051379	      0.00000000	      0.00000000
      7.35000000	      4.47624223	     -4.18577727	   -169.94127821	      0.32766528	      0.71011128	     -0.60561537	     62.13693462	    -20.66597341	      3.72882416	     80.08240166	      1.39770158	     27.54436683	      0.00000000	      0.00000000	     62.45980147	     -3.58820199	     -0.31184817	     78.60397845	      1.37189823	     22.47686156	      0.00000000	      0.00000000	    -63.30633759	      6.72407631	    -11.28079924	     56.30773337	     -0.87395076	     16.31873453	      8.75564702	     25.43718139	      0.00000000	      0.00000000	     65.58863685	    -14.67197808	     76.64887431	      6.09864746	     79.31507207	      0.00000000	      0.00000000
      7.35500000	      4.44543772	     -4.22162041	   -170.10903037	      0.32743101	      0.71098390	     -0.60543387	     62.01158175	    -20.55925470	      3.79710954	     79.88961726	      1.39433686	     27.47047422	      0.00000000	      0.00000000	     62.28267337	     -3.70180670	     -0.46602826	     78.47233808	      1.36960067	     22.45605761	      0.00000000	      0.00000000	    -63.40022648	      6.62207934	    -11.28841028	     56.43856973	     -0.78455481	     15.75953092	      8.58760217	     26.47323681	      0.00000000	      0.00000000	     65.51653707	    -14.65406896	     75.57360250	      6.06718888	     78.82047367	      0.00000000	      0.00000000
      7.36000000	      4.49776678	     -4.09531076	   -169.95962472	      0.32706285	      0.71155294	     -0.60483961	     61.92312139	    -20.67074119	      3.57216936	     79.81342604	      1.39300707	     27.37401815	      0.00000000	      0.00000000	     62.30138403	     -3.58516900	     -0.28111320	     78.39433909	      1.36823933	     22.44044700	      0.00000000	      0.00000000	    -63.37717732	      6.83532609	    -11.06018687	     56.30827188	     -1.03966079	     15.70293515	      8.98470056	     25.77162194	      0.00000000	      0.00000000	     65.70798438	    -14.53654402	     77.91531938	      6.13683185	     79.90151203	      0.00000000	      0.00000000
      7.36500000	      4.62765518	     -4.18610076	   -170.06540239	      0.32676286	      0.71205806	     -0.60480594	     62.03389583	    -20.64366486	      3.72332905	     79.69514821	      1.39094273	     27.28131066	      0.00000000	      0.00000000	     62.28505373	     -3.61987090	     -0.45847253	     78.26189175	      1.36592769	     22.42657675	      0.00000000	      0.00000000	    -63.30869914	      6.70342417	    -10.95519154	     56.36894548	     -1.11916328	     15.01868762	      8.70559628	     27.10142704	      0.00000000	      0.00000000	     65.58109687	    -14.12955504	     75.37117812	      5.74760423	     78.91231659	      0.00000000	      0.00000000
